<mxfile host="app.diagrams.net" agent="Mozilla/5.0 (Windows NT 10.0; Win64; x64) AppleWebKit/537.36 (KHTML, like Gecko) Chrome/134.0.0.0 Safari/537.36 Edg/134.0.0.0" version="26.2.4">
  <diagram name="第 1 页" id="7PjvP8GFCn9NvJCdiBMW">
    <mxGraphModel dx="680" dy="1876" grid="1" gridSize="10" guides="1" tooltips="1" connect="1" arrows="1" fold="1" page="1" pageScale="1" pageWidth="827" pageHeight="1169" math="0" shadow="0">
      <root>
        <mxCell id="0" />
        <mxCell id="1" parent="0" />
        <mxCell id="oG4KOmsF3gV8HcvaG8GH-1" value="" style="rounded=1;whiteSpace=wrap;html=1;sketch=1;curveFitting=1;jiggle=2;strokeColor=#3399FF;strokeWidth=2;gradientColor=none;fillColor=none;" vertex="1" parent="1">
          <mxGeometry x="150" y="-890" width="540" height="250" as="geometry" />
        </mxCell>
        <mxCell id="oG4KOmsF3gV8HcvaG8GH-2" value="" style="rounded=0;whiteSpace=wrap;html=1;fillColor=none;dashed=1;dashPattern=8 8;" vertex="1" parent="1">
          <mxGeometry x="280" y="-950" width="180" height="330" as="geometry" />
        </mxCell>
        <mxCell id="oG4KOmsF3gV8HcvaG8GH-3" value="" style="ellipse;whiteSpace=wrap;html=1;aspect=fixed;fillColor=#f0a30a;strokeColor=light-dark(#171716, #c17f1f);fontColor=#000000;opacity=50;strokeWidth=2;" vertex="1" parent="1">
          <mxGeometry x="389.99999999999994" y="-855" width="30" height="30" as="geometry" />
        </mxCell>
        <mxCell id="oG4KOmsF3gV8HcvaG8GH-4" value="" style="rounded=0;whiteSpace=wrap;html=1;fillColor=none;dashed=1;dashPattern=8 8;" vertex="1" parent="1">
          <mxGeometry x="160" y="-950" width="100" height="330" as="geometry" />
        </mxCell>
        <mxCell id="oG4KOmsF3gV8HcvaG8GH-5" value="" style="rounded=0;whiteSpace=wrap;html=1;fillColor=none;dashed=1;dashPattern=8 8;strokeColor=light-dark(#151413, #c17f1f);" vertex="1" parent="1">
          <mxGeometry x="479.99999999999994" y="-950" width="180" height="330" as="geometry" />
        </mxCell>
        <mxCell id="oG4KOmsF3gV8HcvaG8GH-6" style="edgeStyle=orthogonalEdgeStyle;rounded=0;orthogonalLoop=1;jettySize=auto;html=1;exitX=0.5;exitY=0;exitDx=0;exitDy=0;entryX=0.5;entryY=1;entryDx=0;entryDy=0;strokeWidth=2;" edge="1" parent="1" source="oG4KOmsF3gV8HcvaG8GH-7" target="oG4KOmsF3gV8HcvaG8GH-25">
          <mxGeometry relative="1" as="geometry" />
        </mxCell>
        <mxCell id="oG4KOmsF3gV8HcvaG8GH-7" value="&lt;font style=&quot;font-size: 20px;&quot;&gt;σ&lt;/font&gt;" style="rounded=1;whiteSpace=wrap;html=1;fillColor=#dae8fc;strokeColor=#6c8ebf;strokeWidth=2;" vertex="1" parent="1">
          <mxGeometry x="195" y="-730" width="40" height="40" as="geometry" />
        </mxCell>
        <mxCell id="oG4KOmsF3gV8HcvaG8GH-8" style="edgeStyle=orthogonalEdgeStyle;rounded=1;orthogonalLoop=1;jettySize=auto;html=1;exitX=0.5;exitY=0;exitDx=0;exitDy=0;entryX=0;entryY=0.5;entryDx=0;entryDy=0;curved=0;strokeWidth=2;" edge="1" parent="1" source="oG4KOmsF3gV8HcvaG8GH-9" target="oG4KOmsF3gV8HcvaG8GH-15">
          <mxGeometry relative="1" as="geometry" />
        </mxCell>
        <mxCell id="oG4KOmsF3gV8HcvaG8GH-9" value="&lt;font style=&quot;font-size: 20px;&quot;&gt;σ&lt;/font&gt;" style="rounded=1;whiteSpace=wrap;html=1;fillColor=#dae8fc;strokeColor=#6c8ebf;strokeWidth=2;" vertex="1" parent="1">
          <mxGeometry x="290" y="-730" width="40" height="40" as="geometry" />
        </mxCell>
        <mxCell id="oG4KOmsF3gV8HcvaG8GH-10" style="edgeStyle=orthogonalEdgeStyle;rounded=0;orthogonalLoop=1;jettySize=auto;html=1;exitX=0.5;exitY=0;exitDx=0;exitDy=0;entryX=0.5;entryY=1;entryDx=0;entryDy=0;strokeWidth=2;" edge="1" parent="1" source="oG4KOmsF3gV8HcvaG8GH-11" target="oG4KOmsF3gV8HcvaG8GH-15">
          <mxGeometry relative="1" as="geometry" />
        </mxCell>
        <mxCell id="oG4KOmsF3gV8HcvaG8GH-11" value="&lt;font style=&quot;font-size: 20px;&quot;&gt;tanh&lt;/font&gt;" style="rounded=1;whiteSpace=wrap;html=1;fillColor=#dae8fc;strokeColor=#6c8ebf;strokeWidth=2;" vertex="1" parent="1">
          <mxGeometry x="376.24999999999994" y="-730" width="57.5" height="40" as="geometry" />
        </mxCell>
        <mxCell id="oG4KOmsF3gV8HcvaG8GH-12" style="edgeStyle=orthogonalEdgeStyle;rounded=0;orthogonalLoop=1;jettySize=auto;html=1;exitX=1;exitY=0.5;exitDx=0;exitDy=0;entryX=0;entryY=0.5;entryDx=0;entryDy=0;strokeWidth=2;" edge="1" parent="1" source="oG4KOmsF3gV8HcvaG8GH-13" target="oG4KOmsF3gV8HcvaG8GH-19">
          <mxGeometry relative="1" as="geometry" />
        </mxCell>
        <mxCell id="oG4KOmsF3gV8HcvaG8GH-13" value="&lt;font style=&quot;font-size: 20px;&quot;&gt;σ&lt;/font&gt;" style="rounded=1;whiteSpace=wrap;html=1;fillColor=#dae8fc;strokeColor=#6c8ebf;strokeWidth=2;" vertex="1" parent="1">
          <mxGeometry x="510" y="-730" width="40" height="40" as="geometry" />
        </mxCell>
        <mxCell id="oG4KOmsF3gV8HcvaG8GH-14" style="edgeStyle=orthogonalEdgeStyle;rounded=0;orthogonalLoop=1;jettySize=auto;html=1;exitX=0.5;exitY=0;exitDx=0;exitDy=0;entryX=0.5;entryY=1;entryDx=0;entryDy=0;strokeWidth=2;" edge="1" parent="1" source="oG4KOmsF3gV8HcvaG8GH-15" target="oG4KOmsF3gV8HcvaG8GH-3">
          <mxGeometry relative="1" as="geometry" />
        </mxCell>
        <mxCell id="oG4KOmsF3gV8HcvaG8GH-15" value="" style="ellipse;whiteSpace=wrap;html=1;aspect=fixed;fillColor=#f0a30a;strokeColor=light-dark(#100f0f, #c17f1f);fontColor=#000000;opacity=50;strokeWidth=2;" vertex="1" parent="1">
          <mxGeometry x="389.99999999999994" y="-795" width="30" height="30" as="geometry" />
        </mxCell>
        <mxCell id="oG4KOmsF3gV8HcvaG8GH-16" style="edgeStyle=orthogonalEdgeStyle;rounded=0;orthogonalLoop=1;jettySize=auto;html=1;exitX=0.5;exitY=1;exitDx=0;exitDy=0;entryX=0.5;entryY=0;entryDx=0;entryDy=0;strokeWidth=2;" edge="1" parent="1" source="oG4KOmsF3gV8HcvaG8GH-17" target="oG4KOmsF3gV8HcvaG8GH-19">
          <mxGeometry relative="1" as="geometry" />
        </mxCell>
        <mxCell id="oG4KOmsF3gV8HcvaG8GH-17" value="&lt;font style=&quot;font-size: 20px;&quot;&gt;tanh&lt;/font&gt;" style="ellipse;whiteSpace=wrap;html=1;fillColor=#f0a30a;strokeColor=light-dark(#0f0f0f, #c17f1f);fontColor=#000000;opacity=50;strokeWidth=2;" vertex="1" parent="1">
          <mxGeometry x="587.5000000000001" y="-800" width="65" height="40" as="geometry" />
        </mxCell>
        <mxCell id="oG4KOmsF3gV8HcvaG8GH-18" style="edgeStyle=orthogonalEdgeStyle;rounded=1;orthogonalLoop=1;jettySize=auto;html=1;exitX=0.5;exitY=1;exitDx=0;exitDy=0;curved=0;strokeWidth=2;" edge="1" parent="1" source="oG4KOmsF3gV8HcvaG8GH-19">
          <mxGeometry relative="1" as="geometry">
            <mxPoint x="790.9090909090911" y="-670" as="targetPoint" />
            <Array as="points">
              <mxPoint x="620.0000000000001" y="-670" />
            </Array>
          </mxGeometry>
        </mxCell>
        <mxCell id="oG4KOmsF3gV8HcvaG8GH-19" value="" style="ellipse;whiteSpace=wrap;html=1;aspect=fixed;fillColor=#f0a30a;strokeColor=light-dark(#151413, #c17f1f);fontColor=#000000;opacity=50;strokeWidth=2;" vertex="1" parent="1">
          <mxGeometry x="605.0000000000001" y="-725" width="30" height="30" as="geometry" />
        </mxCell>
        <mxCell id="oG4KOmsF3gV8HcvaG8GH-20" value="" style="endArrow=none;html=1;rounded=0;entryX=0;entryY=0.5;entryDx=0;entryDy=0;strokeWidth=2;" edge="1" parent="1" target="oG4KOmsF3gV8HcvaG8GH-25">
          <mxGeometry width="50" height="50" relative="1" as="geometry">
            <mxPoint x="100" y="-840" as="sourcePoint" />
            <mxPoint x="195" y="-840.8599999999998" as="targetPoint" />
          </mxGeometry>
        </mxCell>
        <mxCell id="oG4KOmsF3gV8HcvaG8GH-21" value="" style="endArrow=none;html=1;rounded=0;exitX=1;exitY=0.5;exitDx=0;exitDy=0;entryX=0;entryY=0.5;entryDx=0;entryDy=0;strokeWidth=2;" edge="1" parent="1" source="oG4KOmsF3gV8HcvaG8GH-25" target="oG4KOmsF3gV8HcvaG8GH-3">
          <mxGeometry width="50" height="50" relative="1" as="geometry">
            <mxPoint x="235" y="-840.8599999999998" as="sourcePoint" />
            <mxPoint x="385.00000000000244" y="-840.8599999999998" as="targetPoint" />
          </mxGeometry>
        </mxCell>
        <mxCell id="oG4KOmsF3gV8HcvaG8GH-22" value="" style="endArrow=none;html=1;rounded=1;entryX=0.5;entryY=1;entryDx=0;entryDy=0;curved=0;strokeWidth=2;" edge="1" parent="1">
          <mxGeometry width="50" height="50" relative="1" as="geometry">
            <mxPoint x="200" y="-560" as="sourcePoint" />
            <mxPoint x="214.74" y="-690" as="targetPoint" />
            <Array as="points">
              <mxPoint x="200" y="-670" />
              <mxPoint x="215" y="-670" />
            </Array>
          </mxGeometry>
        </mxCell>
        <mxCell id="oG4KOmsF3gV8HcvaG8GH-23" value="" style="endArrow=none;html=1;rounded=1;entryX=0.5;entryY=1;entryDx=0;entryDy=0;curved=0;strokeWidth=2;" edge="1" parent="1" target="oG4KOmsF3gV8HcvaG8GH-9">
          <mxGeometry width="50" height="50" relative="1" as="geometry">
            <mxPoint x="240" y="-670" as="sourcePoint" />
            <mxPoint x="329.99999999999994" y="-690" as="targetPoint" />
            <Array as="points">
              <mxPoint x="290" y="-670" />
              <mxPoint x="309.99999999999994" y="-670" />
            </Array>
          </mxGeometry>
        </mxCell>
        <mxCell id="oG4KOmsF3gV8HcvaG8GH-24" value="" style="endArrow=none;html=1;rounded=0;exitX=0.5;exitY=1;exitDx=0;exitDy=0;entryX=0.5;entryY=0;entryDx=0;entryDy=0;" edge="1" parent="1" source="oG4KOmsF3gV8HcvaG8GH-3" target="oG4KOmsF3gV8HcvaG8GH-3">
          <mxGeometry width="50" height="50" relative="1" as="geometry">
            <mxPoint x="389.99999999999994" y="-900" as="sourcePoint" />
            <mxPoint x="439.99999999999994" y="-950" as="targetPoint" />
          </mxGeometry>
        </mxCell>
        <mxCell id="oG4KOmsF3gV8HcvaG8GH-25" value="" style="ellipse;whiteSpace=wrap;html=1;aspect=fixed;fillColor=#f0a30a;strokeColor=light-dark(#151414, #c17f1f);fontColor=#000000;opacity=50;strokeWidth=2;" vertex="1" parent="1">
          <mxGeometry x="200" y="-855" width="30" height="30" as="geometry" />
        </mxCell>
        <mxCell id="oG4KOmsF3gV8HcvaG8GH-26" value="" style="endArrow=none;html=1;rounded=0;exitX=0;exitY=1;exitDx=0;exitDy=0;entryX=1;entryY=0;entryDx=0;entryDy=0;" edge="1" parent="1" source="oG4KOmsF3gV8HcvaG8GH-15" target="oG4KOmsF3gV8HcvaG8GH-15">
          <mxGeometry width="50" height="50" relative="1" as="geometry">
            <mxPoint x="319.99999999999994" y="-750" as="sourcePoint" />
            <mxPoint x="369.99999999999994" y="-800" as="targetPoint" />
          </mxGeometry>
        </mxCell>
        <mxCell id="oG4KOmsF3gV8HcvaG8GH-27" value="" style="endArrow=none;html=1;rounded=0;exitX=0;exitY=0;exitDx=0;exitDy=0;entryX=1;entryY=1;entryDx=0;entryDy=0;" edge="1" parent="1" source="oG4KOmsF3gV8HcvaG8GH-15" target="oG4KOmsF3gV8HcvaG8GH-15">
          <mxGeometry width="50" height="50" relative="1" as="geometry">
            <mxPoint x="349.99999999999994" y="-880" as="sourcePoint" />
            <mxPoint x="399.99999999999994" y="-930" as="targetPoint" />
          </mxGeometry>
        </mxCell>
        <mxCell id="oG4KOmsF3gV8HcvaG8GH-28" value="" style="endArrow=classic;html=1;rounded=1;curved=0;strokeWidth=2;" edge="1" parent="1">
          <mxGeometry width="50" height="50" relative="1" as="geometry">
            <mxPoint x="600.0000000000001" y="-840" as="sourcePoint" />
            <mxPoint x="620.0000000000001" y="-800" as="targetPoint" />
            <Array as="points">
              <mxPoint x="620.0000000000001" y="-840" />
            </Array>
          </mxGeometry>
        </mxCell>
        <mxCell id="oG4KOmsF3gV8HcvaG8GH-29" value="" style="endArrow=none;html=1;rounded=0;exitX=0;exitY=1;exitDx=0;exitDy=0;entryX=1;entryY=0;entryDx=0;entryDy=0;" edge="1" parent="1" source="oG4KOmsF3gV8HcvaG8GH-25" target="oG4KOmsF3gV8HcvaG8GH-25">
          <mxGeometry width="50" height="50" relative="1" as="geometry">
            <mxPoint x="200" y="-820" as="sourcePoint" />
            <mxPoint x="230" y="-850" as="targetPoint" />
          </mxGeometry>
        </mxCell>
        <mxCell id="oG4KOmsF3gV8HcvaG8GH-30" value="" style="endArrow=none;html=1;rounded=0;exitX=0;exitY=0;exitDx=0;exitDy=0;entryX=1;entryY=1;entryDx=0;entryDy=0;" edge="1" parent="1" source="oG4KOmsF3gV8HcvaG8GH-25" target="oG4KOmsF3gV8HcvaG8GH-25">
          <mxGeometry width="50" height="50" relative="1" as="geometry">
            <mxPoint x="220" y="-860" as="sourcePoint" />
            <mxPoint x="270" y="-910" as="targetPoint" />
          </mxGeometry>
        </mxCell>
        <mxCell id="oG4KOmsF3gV8HcvaG8GH-31" value="" style="endArrow=none;html=1;rounded=0;exitX=0;exitY=1;exitDx=0;exitDy=0;entryX=1;entryY=0;entryDx=0;entryDy=0;" edge="1" parent="1" source="oG4KOmsF3gV8HcvaG8GH-19" target="oG4KOmsF3gV8HcvaG8GH-19">
          <mxGeometry width="50" height="50" relative="1" as="geometry">
            <mxPoint x="590.0000000000001" y="-560" as="sourcePoint" />
            <mxPoint x="640.0000000000001" y="-610" as="targetPoint" />
          </mxGeometry>
        </mxCell>
        <mxCell id="oG4KOmsF3gV8HcvaG8GH-32" value="" style="endArrow=none;html=1;rounded=0;entryX=0;entryY=0;entryDx=0;entryDy=0;exitX=1;exitY=1;exitDx=0;exitDy=0;" edge="1" parent="1" source="oG4KOmsF3gV8HcvaG8GH-19" target="oG4KOmsF3gV8HcvaG8GH-19">
          <mxGeometry width="50" height="50" relative="1" as="geometry">
            <mxPoint x="570.0000000000001" y="-570" as="sourcePoint" />
            <mxPoint x="620.0000000000001" y="-620" as="targetPoint" />
          </mxGeometry>
        </mxCell>
        <mxCell id="oG4KOmsF3gV8HcvaG8GH-33" value="" style="endArrow=classic;html=1;rounded=0;exitX=0.936;exitY=0.5;exitDx=0;exitDy=0;exitPerimeter=0;strokeWidth=2;" edge="1" parent="1" source="oG4KOmsF3gV8HcvaG8GH-3">
          <mxGeometry width="50" height="50" relative="1" as="geometry">
            <mxPoint x="424.99999999999994" y="-840.16" as="sourcePoint" />
            <mxPoint x="790.0000000000001" y="-840" as="targetPoint" />
          </mxGeometry>
        </mxCell>
        <mxCell id="oG4KOmsF3gV8HcvaG8GH-34" value="" style="endArrow=classic;html=1;rounded=1;curved=0;strokeWidth=2;" edge="1" parent="1">
          <mxGeometry width="50" height="50" relative="1" as="geometry">
            <mxPoint x="630.0000000000001" y="-670" as="sourcePoint" />
            <mxPoint x="670.0000000000001" y="-1000" as="targetPoint" />
            <Array as="points">
              <mxPoint x="670.0000000000001" y="-670" />
            </Array>
          </mxGeometry>
        </mxCell>
        <mxCell id="oG4KOmsF3gV8HcvaG8GH-35" value="&lt;font style=&quot;font-size: 20px;&quot; face=&quot;Verdana&quot;&gt;c(t-1)&lt;/font&gt;" style="text;html=1;align=center;verticalAlign=middle;whiteSpace=wrap;rounded=0;" vertex="1" parent="1">
          <mxGeometry x="60" y="-880" width="60" height="30" as="geometry" />
        </mxCell>
        <mxCell id="oG4KOmsF3gV8HcvaG8GH-36" value="&lt;font style=&quot;font-size: 20px;&quot; face=&quot;Verdana&quot;&gt;h(t-1)&lt;/font&gt;" style="text;html=1;align=center;verticalAlign=middle;whiteSpace=wrap;rounded=0;" vertex="1" parent="1">
          <mxGeometry x="50" y="-710" width="80" height="30" as="geometry" />
        </mxCell>
        <mxCell id="oG4KOmsF3gV8HcvaG8GH-37" value="&lt;font style=&quot;font-size: 20px;&quot; face=&quot;Verdana&quot;&gt;f(t)&lt;/font&gt;" style="text;html=1;align=center;verticalAlign=middle;whiteSpace=wrap;rounded=0;" vertex="1" parent="1">
          <mxGeometry x="220" y="-785" width="40" height="30" as="geometry" />
        </mxCell>
        <mxCell id="oG4KOmsF3gV8HcvaG8GH-38" value="&lt;font style=&quot;font-size: 20px;&quot; face=&quot;Verdana&quot;&gt;i(t)&lt;/font&gt;" style="text;html=1;align=center;verticalAlign=middle;whiteSpace=wrap;rounded=0;" vertex="1" parent="1">
          <mxGeometry x="319.99999999999994" y="-815" width="40" height="30" as="geometry" />
        </mxCell>
        <mxCell id="oG4KOmsF3gV8HcvaG8GH-39" value="&lt;font style=&quot;font-size: 20px;&quot; face=&quot;Verdana&quot;&gt;c(t)&lt;/font&gt;" style="text;html=1;align=center;verticalAlign=middle;whiteSpace=wrap;rounded=0;" vertex="1" parent="1">
          <mxGeometry x="406.99999999999994" y="-765" width="53" height="30" as="geometry" />
        </mxCell>
        <mxCell id="oG4KOmsF3gV8HcvaG8GH-40" value="" style="endArrow=none;html=1;rounded=1;entryX=0.5;entryY=1;entryDx=0;entryDy=0;curved=0;strokeWidth=2;" edge="1" parent="1" target="oG4KOmsF3gV8HcvaG8GH-11">
          <mxGeometry width="50" height="50" relative="1" as="geometry">
            <mxPoint x="369.99999999999994" y="-670" as="sourcePoint" />
            <mxPoint x="429.99999999999994" y="-670" as="targetPoint" />
            <Array as="points">
              <mxPoint x="404.99999999999994" y="-670" />
            </Array>
          </mxGeometry>
        </mxCell>
        <mxCell id="oG4KOmsF3gV8HcvaG8GH-41" value="" style="endArrow=classic;html=1;rounded=1;entryX=0.5;entryY=1;entryDx=0;entryDy=0;curved=0;strokeWidth=2;" edge="1" parent="1" target="oG4KOmsF3gV8HcvaG8GH-13">
          <mxGeometry width="50" height="50" relative="1" as="geometry">
            <mxPoint x="100" y="-670" as="sourcePoint" />
            <mxPoint x="210" y="-710" as="targetPoint" />
            <Array as="points">
              <mxPoint x="530" y="-670" />
            </Array>
          </mxGeometry>
        </mxCell>
        <mxCell id="oG4KOmsF3gV8HcvaG8GH-42" value="&lt;font face=&quot;Verdana&quot; style=&quot;font-size: 20px;&quot;&gt;~&lt;/font&gt;" style="text;html=1;align=center;verticalAlign=middle;whiteSpace=wrap;rounded=0;" vertex="1" parent="1">
          <mxGeometry x="399.99999999999994" y="-765" width="40" height="10" as="geometry" />
        </mxCell>
        <mxCell id="oG4KOmsF3gV8HcvaG8GH-43" value="" style="ellipse;whiteSpace=wrap;html=1;align=center;aspect=fixed;fillColor=none;strokeColor=none;resizable=0;perimeter=centerPerimeter;rotatable=0;allowArrows=0;points=[];outlineConnect=1;" vertex="1" parent="1">
          <mxGeometry x="170" y="-720" width="10" height="10" as="geometry" />
        </mxCell>
        <mxCell id="oG4KOmsF3gV8HcvaG8GH-44" value="" style="rounded=0;orthogonalLoop=1;jettySize=auto;html=1;endArrow=halfCircle;endFill=0;endSize=6;strokeWidth=2;sketch=0;fontSize=12;curved=1;" edge="1" parent="1">
          <mxGeometry relative="1" as="geometry">
            <mxPoint x="195" y="-710" as="sourcePoint" />
            <mxPoint x="175" y="-710" as="targetPoint" />
          </mxGeometry>
        </mxCell>
        <mxCell id="oG4KOmsF3gV8HcvaG8GH-45" value="" style="rounded=0;orthogonalLoop=1;jettySize=auto;html=1;endArrow=halfCircle;endFill=0;endSize=6;strokeWidth=2;sketch=0;fontSize=12;curved=1;" edge="1" parent="1">
          <mxGeometry relative="1" as="geometry">
            <mxPoint x="290" y="-710" as="sourcePoint" />
            <mxPoint x="270" y="-710" as="targetPoint" />
          </mxGeometry>
        </mxCell>
        <mxCell id="oG4KOmsF3gV8HcvaG8GH-46" value="" style="rounded=0;orthogonalLoop=1;jettySize=auto;html=1;endArrow=halfCircle;endFill=0;endSize=6;strokeWidth=2;sketch=0;fontSize=12;curved=1;" edge="1" parent="1">
          <mxGeometry relative="1" as="geometry">
            <mxPoint x="376.24999999999994" y="-710.23" as="sourcePoint" />
            <mxPoint x="356.24999999999994" y="-710.23" as="targetPoint" />
          </mxGeometry>
        </mxCell>
        <mxCell id="oG4KOmsF3gV8HcvaG8GH-47" value="" style="rounded=0;orthogonalLoop=1;jettySize=auto;html=1;endArrow=halfCircle;endFill=0;endSize=6;strokeWidth=2;sketch=0;fontSize=12;curved=1;" edge="1" parent="1">
          <mxGeometry relative="1" as="geometry">
            <mxPoint x="510" y="-710.48" as="sourcePoint" />
            <mxPoint x="489.99999999999994" y="-710.48" as="targetPoint" />
          </mxGeometry>
        </mxCell>
        <mxCell id="oG4KOmsF3gV8HcvaG8GH-48" value="" style="endArrow=none;html=1;rounded=0;exitX=0;exitY=0.5;exitDx=0;exitDy=0;entryX=1;entryY=0.5;entryDx=0;entryDy=0;" edge="1" parent="1" source="oG4KOmsF3gV8HcvaG8GH-3" target="oG4KOmsF3gV8HcvaG8GH-3">
          <mxGeometry width="50" height="50" relative="1" as="geometry">
            <mxPoint x="385.00000000000244" y="-840.8599999999998" as="sourcePoint" />
            <mxPoint x="424.99999999999744" y="-840.8599999999998" as="targetPoint" />
          </mxGeometry>
        </mxCell>
        <mxCell id="oG4KOmsF3gV8HcvaG8GH-49" value="" style="endArrow=none;html=1;rounded=0;exitX=0.5;exitY=1;exitDx=0;exitDy=0;entryX=0.5;entryY=0;entryDx=0;entryDy=0;" edge="1" parent="1" source="oG4KOmsF3gV8HcvaG8GH-3" target="oG4KOmsF3gV8HcvaG8GH-3">
          <mxGeometry width="50" height="50" relative="1" as="geometry">
            <mxPoint x="339.99999999999994" y="-890" as="sourcePoint" />
            <mxPoint x="389.99999999999994" y="-940" as="targetPoint" />
          </mxGeometry>
        </mxCell>
        <mxCell id="oG4KOmsF3gV8HcvaG8GH-50" value="&lt;font style=&quot;font-size: 20px;&quot; face=&quot;Verdana&quot;&gt;h(t)&lt;/font&gt;" style="text;html=1;align=center;verticalAlign=middle;whiteSpace=wrap;rounded=0;" vertex="1" parent="1">
          <mxGeometry x="640.0000000000001" y="-1040" width="60" height="30" as="geometry" />
        </mxCell>
        <mxCell id="oG4KOmsF3gV8HcvaG8GH-51" value="&lt;font style=&quot;font-size: 20px;&quot; face=&quot;Verdana&quot;&gt;c(t)&lt;/font&gt;" style="text;html=1;align=center;verticalAlign=middle;whiteSpace=wrap;rounded=0;" vertex="1" parent="1">
          <mxGeometry x="710.0000000000001" y="-880" width="80" height="30" as="geometry" />
        </mxCell>
        <mxCell id="oG4KOmsF3gV8HcvaG8GH-52" value="&lt;font style=&quot;font-size: 20px;&quot; face=&quot;Verdana&quot;&gt;h(t)&lt;/font&gt;" style="text;html=1;align=center;verticalAlign=middle;whiteSpace=wrap;rounded=0;" vertex="1" parent="1">
          <mxGeometry x="710.0000000000001" y="-710" width="80" height="30" as="geometry" />
        </mxCell>
        <mxCell id="oG4KOmsF3gV8HcvaG8GH-53" value="&lt;font style=&quot;font-size: 20px;&quot; face=&quot;Verdana&quot;&gt;o(t)&lt;/font&gt;" style="text;html=1;align=center;verticalAlign=middle;whiteSpace=wrap;rounded=0;" vertex="1" parent="1">
          <mxGeometry x="560" y="-750" width="40" height="30" as="geometry" />
        </mxCell>
        <mxCell id="oG4KOmsF3gV8HcvaG8GH-54" value="&lt;span style=&quot;font-size: 20px;&quot;&gt;&lt;b&gt;Output&lt;/b&gt;&lt;/span&gt;&lt;div&gt;&lt;span style=&quot;font-size: 20px;&quot;&gt;&lt;b&gt;Gate&lt;/b&gt;&lt;/span&gt;&lt;/div&gt;" style="text;html=1;align=center;verticalAlign=middle;whiteSpace=wrap;rounded=0;" vertex="1" parent="1">
          <mxGeometry x="515" y="-935" width="120" height="30" as="geometry" />
        </mxCell>
        <mxCell id="oG4KOmsF3gV8HcvaG8GH-55" value="&lt;span style=&quot;font-size: 20px;&quot;&gt;&lt;b&gt;Input&lt;/b&gt;&lt;/span&gt;&lt;div&gt;&lt;span style=&quot;font-size: 20px;&quot;&gt;&lt;b&gt;Gate&lt;/b&gt;&lt;/span&gt;&lt;/div&gt;" style="text;html=1;align=center;verticalAlign=middle;whiteSpace=wrap;rounded=0;" vertex="1" parent="1">
          <mxGeometry x="309.99999999999994" y="-935" width="120" height="30" as="geometry" />
        </mxCell>
        <mxCell id="oG4KOmsF3gV8HcvaG8GH-56" value="&lt;span style=&quot;font-size: 20px;&quot;&gt;&lt;b&gt;Forget&lt;/b&gt;&lt;/span&gt;&lt;div&gt;&lt;span style=&quot;font-size: 20px;&quot;&gt;&lt;b&gt;Gate&lt;/b&gt;&lt;/span&gt;&lt;/div&gt;" style="text;html=1;align=center;verticalAlign=middle;whiteSpace=wrap;rounded=0;" vertex="1" parent="1">
          <mxGeometry x="162.5" y="-935" width="95" height="30" as="geometry" />
        </mxCell>
        <mxCell id="oG4KOmsF3gV8HcvaG8GH-57" value="&lt;font style=&quot;font-size: 20px;&quot; face=&quot;Verdana&quot;&gt;x(t)&lt;/font&gt;" style="text;html=1;align=center;verticalAlign=middle;whiteSpace=wrap;rounded=0;" vertex="1" parent="1">
          <mxGeometry x="180" y="-560" width="40" height="30" as="geometry" />
        </mxCell>
        <mxCell id="oG4KOmsF3gV8HcvaG8GH-58" value="" style="rounded=1;whiteSpace=wrap;html=1;dashed=1;dashPattern=8 8;" vertex="1" parent="1">
          <mxGeometry x="346.95" y="-590" width="335.05" height="80" as="geometry" />
        </mxCell>
        <mxCell id="oG4KOmsF3gV8HcvaG8GH-59" value="" style="rounded=0;orthogonalLoop=1;jettySize=auto;html=1;endArrow=halfCircle;endFill=0;endSize=6;strokeWidth=2;sketch=0;fontSize=12;curved=1;" edge="1" parent="1">
          <mxGeometry relative="1" as="geometry">
            <mxPoint x="646.9500000000002" y="-570" as="sourcePoint" />
            <mxPoint x="626.9500000000002" y="-570" as="targetPoint" />
          </mxGeometry>
        </mxCell>
        <mxCell id="oG4KOmsF3gV8HcvaG8GH-60" value="" style="ellipse;whiteSpace=wrap;html=1;align=center;aspect=fixed;fillColor=none;strokeColor=none;resizable=0;perimeter=centerPerimeter;rotatable=0;allowArrows=0;points=[];outlineConnect=1;" vertex="1" parent="1">
          <mxGeometry x="611.9500000000002" y="-560" width="10" height="10" as="geometry" />
        </mxCell>
        <mxCell id="oG4KOmsF3gV8HcvaG8GH-61" value="" style="endArrow=classic;html=1;rounded=0;" edge="1" parent="1">
          <mxGeometry width="50" height="50" relative="1" as="geometry">
            <mxPoint x="530.1999999999999" y="-570.4000000000001" as="sourcePoint" />
            <mxPoint x="575.2000000000002" y="-570.4000000000001" as="targetPoint" />
          </mxGeometry>
        </mxCell>
        <mxCell id="oG4KOmsF3gV8HcvaG8GH-62" value="" style="ellipse;whiteSpace=wrap;html=1;aspect=fixed;fillColor=#f0a30a;strokeColor=light-dark(#171716, #c17f1f);fontColor=#000000;opacity=50;strokeWidth=2;" vertex="1" parent="1">
          <mxGeometry x="464.62999999999994" y="-580" width="20" height="20" as="geometry" />
        </mxCell>
        <mxCell id="oG4KOmsF3gV8HcvaG8GH-63" value="" style="rounded=1;whiteSpace=wrap;html=1;fillColor=#dae8fc;strokeColor=#6c8ebf;strokeWidth=2;" vertex="1" parent="1">
          <mxGeometry x="393.94999999999993" y="-580" width="20" height="20" as="geometry" />
        </mxCell>
        <mxCell id="oG4KOmsF3gV8HcvaG8GH-64" value="&lt;font style=&quot;font-size: 16px;&quot;&gt;Neural&lt;/font&gt;&lt;div&gt;&lt;font style=&quot;font-size: 16px;&quot;&gt;Node&lt;/font&gt;&lt;/div&gt;" style="text;html=1;align=center;verticalAlign=middle;whiteSpace=wrap;rounded=0;" vertex="1" parent="1">
          <mxGeometry x="367.98" y="-550" width="71.95" height="30" as="geometry" />
        </mxCell>
        <mxCell id="oG4KOmsF3gV8HcvaG8GH-65" value="&lt;font style=&quot;font-size: 16px;&quot;&gt;Pointwise&lt;/font&gt;&lt;div&gt;&lt;font style=&quot;font-size: 16px;&quot;&gt;Operation&lt;/font&gt;&lt;/div&gt;" style="text;html=1;align=center;verticalAlign=middle;whiteSpace=wrap;rounded=0;" vertex="1" parent="1">
          <mxGeometry x="433.75" y="-550" width="81.75" height="30" as="geometry" />
        </mxCell>
        <mxCell id="oG4KOmsF3gV8HcvaG8GH-66" value="&lt;font style=&quot;font-size: 16px;&quot;&gt;Parameter&lt;/font&gt;&lt;div&gt;&lt;font style=&quot;font-size: 16px;&quot;&gt;Connection&lt;/font&gt;&lt;/div&gt;" style="text;html=1;align=center;verticalAlign=middle;whiteSpace=wrap;rounded=0;" vertex="1" parent="1">
          <mxGeometry x="520.45" y="-550" width="67.05" height="30" as="geometry" />
        </mxCell>
        <mxCell id="oG4KOmsF3gV8HcvaG8GH-67" value="&lt;font style=&quot;font-size: 16px;&quot;&gt;Bias&lt;/font&gt;" style="text;html=1;align=center;verticalAlign=middle;whiteSpace=wrap;rounded=0;" vertex="1" parent="1">
          <mxGeometry x="606.9500000000002" y="-550" width="60" height="30" as="geometry" />
        </mxCell>
      </root>
    </mxGraphModel>
  </diagram>
</mxfile>
